<svg width="22" height="22" viewBox="0 0 22 22" fill="none" xmlns="http://www.w3.org/2000/svg">
<path fill-rule="evenodd" clip-rule="evenodd" d="M17.205 14.1023C14.1025 14.1023 14.1025 14.337 14.1025 17.2049V17.2331C14.1025 18.482 14.1025 19.3846 14.4082 19.7659C14.7072 20.136 15.5951 20.3075 17.205 20.3075C18.815 20.3075 19.7029 20.1348 20.0018 19.7648C20.3076 19.3846 20.3076 18.482 20.3076 17.232C20.3076 14.337 20.3076 14.1023 17.205 14.1023M17.205 21.9999C15.3029 21.9999 13.8757 21.8002 13.0916 20.8266C12.4102 19.9815 12.4102 18.8285 12.4102 17.2332L13.2563 17.205H12.4102C12.4102 13.9671 12.6144 12.4102 17.205 12.4102C21.7957 12.4102 21.9999 13.9671 21.9999 17.205C21.9999 18.8274 21.9999 19.9815 21.3185 20.8266C20.5344 21.8002 19.1072 21.9999 17.205 21.9999" fill="#1C1B1F" style="fill:#1C1B1F;fill:color(display-p3 0.1098 0.1059 0.1216);fill-opacity:1;"/>
<path fill-rule="evenodd" clip-rule="evenodd" d="M4.79487 14.1023C1.6923 14.1023 1.6923 14.337 1.6923 17.2049V17.2331C1.6923 18.482 1.6923 19.3846 1.99805 19.7659C2.29702 20.136 3.18492 20.3075 4.79487 20.3075C6.40482 20.3075 7.29271 20.1348 7.59169 19.7648C7.89743 19.3846 7.89743 18.482 7.89743 17.232C7.89743 14.337 7.89743 14.1023 4.79487 14.1023M4.79487 21.9999C2.89272 21.9999 1.46554 21.8002 0.681436 20.8266C0 19.9815 0 18.8285 0 17.2332L0.846154 17.205H0C0 13.9671 0.204205 12.4102 4.79487 12.4102C9.38554 12.4102 9.58974 13.9671 9.58974 17.205C9.58974 18.8274 9.58974 19.9815 8.90831 20.8266C8.12421 21.8002 6.69703 21.9999 4.79487 21.9999" fill="#1C1B1F" style="fill:#1C1B1F;fill:color(display-p3 0.1098 0.1059 0.1216);fill-opacity:1;"/>
<path fill-rule="evenodd" clip-rule="evenodd" d="M17.205 1.69228C14.1025 1.69228 14.1025 1.92694 14.1025 4.79484V4.82305C14.1025 6.07197 14.1025 6.97453 14.4082 7.35587C14.7072 7.72592 15.5951 7.89741 17.205 7.89741C18.815 7.89741 19.7029 7.72479 20.0018 7.35474C20.3076 6.97453 20.3076 6.07197 20.3076 4.82192C20.3076 1.92694 20.3076 1.69228 17.205 1.69228M17.205 9.58974C15.3029 9.58974 13.8757 9.39005 13.0916 8.41641C12.4102 7.57138 12.4102 6.41836 12.4102 4.82308L13.2563 4.79487H12.4102C12.4102 1.55692 12.6144 0 17.205 0C21.7957 0 21.9999 1.55692 21.9999 4.79487C21.9999 6.41723 21.9999 7.57138 21.3185 8.41641C20.5344 9.39005 19.1072 9.58974 17.205 9.58974" fill="#1C1B1F" style="fill:#1C1B1F;fill:color(display-p3 0.1098 0.1059 0.1216);fill-opacity:1;"/>
<path fill-rule="evenodd" clip-rule="evenodd" d="M4.79487 1.69228C1.6923 1.69228 1.6923 1.92694 1.6923 4.79484V4.82305C1.6923 6.07197 1.6923 6.97453 1.99805 7.35587C2.29702 7.72592 3.18492 7.89741 4.79487 7.89741C6.40482 7.89741 7.29271 7.72479 7.59169 7.35474C7.89743 6.97453 7.89743 6.07197 7.89743 4.82192C7.89743 1.92694 7.89743 1.69228 4.79487 1.69228M4.79487 9.58974C2.89272 9.58974 1.46554 9.39005 0.681436 8.41641C0 7.57138 0 6.41836 0 4.82308L0.846154 4.79487H0C0 1.55692 0.204205 0 4.79487 0C9.38554 0 9.58974 1.55692 9.58974 4.79487C9.58974 6.41723 9.58974 7.57138 8.90831 8.41641C8.12421 9.39005 6.69703 9.58974 4.79487 9.58974" fill="#1C1B1F" style="fill:#1C1B1F;fill:color(display-p3 0.1098 0.1059 0.1216);fill-opacity:1;"/>
</svg>
