<svg width="21" height="21" viewBox="0 0 21 21" fill="none" xmlns="http://www.w3.org/2000/svg">
<path d="M19.3741 18.4778C19.8576 18.478 20.2499 18.8748 20.2501 19.3635C20.2501 19.8524 19.8578 20.25 19.3741 20.2502H11.921C11.436 20.2502 11.0441 19.8525 11.0441 19.3635C11.0443 18.8747 11.4361 18.4778 11.921 18.4778H19.3741ZM10.2433 1.1682C11.3441 -0.253924 13.2722 -0.393268 14.8253 0.836167L16.4503 2.12328C17.1597 2.68554 17.6451 3.42529 17.8146 4.20726C18.0039 5.08008 17.7945 5.96616 17.2267 6.69847L7.53918 19.1916C7.0496 19.8234 6.31333 20.1916 5.51769 20.2024L1.77941 20.2493H1.76965C1.36183 20.2493 1.00753 19.9662 0.915155 19.5647L0.0684748 15.886C-0.111382 15.1029 0.0669529 14.2913 0.557733 13.6594L1.82922 12.0188C2.12724 11.6339 2.67877 11.565 3.05969 11.8684C3.44061 12.1696 3.50714 12.7275 3.20812 13.1125L1.93664 14.7532C1.77536 14.9611 1.71688 15.2271 1.77648 15.4846L2.46203 18.468L5.49523 18.4309C5.75577 18.4273 5.99806 18.3067 6.1593 18.0989L15.8458 5.6057C16.0935 5.28678 16.1788 4.94426 16.1017 4.58519C16.0187 4.20611 15.7595 3.82701 15.3693 3.51878L13.7443 2.22972C13.1155 1.73383 12.2284 1.47897 11.6232 2.26195L10.3439 3.91136L12.3751 5.55785C12.7523 5.86255 12.8132 6.42073 12.5109 6.80101C12.3379 7.02072 12.0824 7.13402 11.8253 7.13402C11.6338 7.13392 11.4396 7.0707 11.2784 6.93968L9.26281 5.30589L5.94836 9.58128C5.64913 9.96602 5.09895 10.0353 4.71691 9.7307C4.33709 9.42948 4.27046 8.87164 4.56847 8.48656L10.2433 1.1682Z" fill="black" style="fill:black;fill-opacity:1;"/>
</svg>
