<svg width="25" height="27" viewBox="0 0 25 27" fill="none" xmlns="http://www.w3.org/2000/svg">
<path fill-rule="evenodd" clip-rule="evenodd" d="M11.7078 1.80128C9.36287 1.80128 7.46193 3.70223 7.46193 6.04716C7.46193 8.39209 9.36287 10.293 11.7078 10.293C14.0527 10.293 15.9537 8.39209 15.9537 6.04716C15.9537 3.70223 14.0527 1.80128 11.7078 1.80128ZM5.66064 6.04716C5.66064 2.70741 8.36805 0 11.7078 0C15.0476 0 17.755 2.70741 17.755 6.04716C17.755 9.38691 15.0476 12.0943 11.7078 12.0943C8.36805 12.0943 5.66064 9.38691 5.66064 6.04716Z" fill="black" style="fill:black;fill-opacity:1;"/>
<path fill-rule="evenodd" clip-rule="evenodd" d="M2.47326 19.9119C4.34328 17.914 7.38458 16.4102 12.0514 16.4102C16.7183 16.4102 19.7596 17.914 21.6296 19.9119C23.4761 21.8846 24.1029 24.2574 24.1029 25.8883C24.1029 26.3857 23.6996 26.789 23.2022 26.789H0.900641C0.403231 26.789 0 26.3857 0 25.8883C0 24.2574 0.626793 21.8846 2.47326 19.9119ZM1.87787 24.9877H22.225C22.0376 23.8316 21.4833 22.3915 20.3145 21.1428C18.8393 19.5667 16.3052 18.2114 12.0514 18.2114C7.79765 18.2114 5.26356 19.5667 3.78834 21.1428C2.61957 22.3915 2.0653 23.8316 1.87787 24.9877Z" fill="black" style="fill:black;fill-opacity:1;"/>
</svg>
