<svg width="18" height="18" viewBox="0 0 18 18" fill="none" xmlns="http://www.w3.org/2000/svg">
<path opacity="0.32" d="M7.35059 0.5C11.1224 0.5 14.202 3.55669 14.2021 7.28125C14.2021 8.82216 13.6777 10.2404 12.7949 11.3887L12.5264 11.7383L12.8398 12.0488L17.3418 16.5176L17.3506 16.5264C17.443 16.6137 17.5 16.7473 17.5 16.9209C17.4999 17.2668 17.2676 17.5 16.9385 17.5C16.7622 17.4999 16.6153 17.4395 16.5068 17.332L11.9756 12.8438L11.6777 12.5488L11.335 12.791C10.2106 13.5865 8.83827 14.0625 7.35059 14.0625C3.57889 14.0623 0.5 11.0057 0.5 7.28125C0.5001 3.54821 3.58766 0.500243 7.35059 0.5ZM7.35059 1.07227C3.92466 1.07251 1.08701 3.87619 1.08691 7.28125C1.08691 10.6864 3.9246 13.491 7.35059 13.4912C10.7768 13.4912 13.6152 10.6865 13.6152 7.28125C13.6151 3.87604 10.7767 1.07227 7.35059 1.07227Z" fill="black" stroke="#5A5A5A" style="fill:black;fill-opacity:1;stroke:#5A5A5A;stroke:color(display-p3 0.3521 0.3521 0.3521);stroke-opacity:1;"/>
</svg>
