<svg width="24" height="24" viewBox="0 0 24 24" fill="none" xmlns="http://www.w3.org/2000/svg">
<path d="M2.40039 16.5C3.53875 16.5002 4.2998 17.2531 4.2998 18V22C4.2998 22.7469 3.53875 23.4998 2.40039 23.5C1.26182 23.5 0.5 22.7469 0.5 22V18C0.5 17.2531 1.26182 16.5 2.40039 16.5ZM12 8.5C13.1386 8.5 13.9004 9.25306 13.9004 10V22C13.9004 22.7469 13.1386 23.5 12 23.5C10.8614 23.5 10.0996 22.7469 10.0996 22V10C10.0996 9.25306 10.8614 8.5 12 8.5ZM21.5996 0.5C22.7382 0.5 23.5 1.25306 23.5 2V22C23.5 22.7469 22.7382 23.5 21.5996 23.5C20.4613 23.4998 19.7002 22.7469 19.7002 22V2C19.7002 1.25314 20.4613 0.500172 21.5996 0.5Z" fill="white" stroke="black" style="fill:white;fill-opacity:1;stroke:black;stroke-opacity:1;"/>
</svg>
